<svg width="979" height="436" viewBox="0 0 979 436" fill="none" xmlns="http://www.w3.org/2000/svg">
<path d="M342.147 115.782C342.987 113.261 343.544 110.466 343.544 107.673C343.544 97.3598 336.843 88.4332 322.895 88.4332C308.675 88.4332 294.717 97.6332 288.311 115.782H342.147ZM312.855 167.665C323.737 167.665 333.503 164.03 344.942 155.672L369.486 184.68C354.14 198.082 334.06 207.282 307.835 207.282C263.198 207.282 235.859 181.045 235.859 140.316C235.859 95.6785 270.729 49.384 326.53 49.384C371.167 49.384 390.691 79.2332 390.691 111.876C390.691 122.188 388.454 133.069 384.83 142.837H284.677C285.79 157.897 294.717 167.665 312.855 167.665Z" fill="#3F3FC4"/>
<path d="M385.477 181.044L411.702 150.083C426.206 163.189 446.571 170.459 461.915 170.459C470.843 170.459 475.306 166.824 475.306 161.236C475.306 155.943 469.446 152.876 454.668 147.016C430.67 137.543 412.258 126.935 412.258 102.947C412.258 72.8029 436.53 49.383 478.1 49.383C505.439 49.383 529.711 59.4243 543.385 70.5776L517.99 102.379C504.882 92.6109 488.982 86.2056 475.306 86.2056C466.663 86.2056 462.199 89.5442 462.199 94.8602C462.199 99.8802 467.503 102.947 483.12 109.08C504.882 117.735 525.247 128.048 525.247 153.149C525.247 182.18 503.486 207.281 459.962 207.281C431.226 207.281 403.615 197.24 385.477 181.044Z" fill="#3F3FC4"/>
<path d="M587.531 0H642.765L632.167 39.0479H576.934L587.531 0ZM574.141 52.7239H627.147L586.691 203.647H533.684L574.141 52.7239Z" fill="#3F3FC4"/>
<path d="M744.647 115.487C744.647 101.539 734.891 91.499 719.546 91.499C699.182 91.499 684.394 109.626 684.394 128.89C684.394 143.11 694.162 152.036 708.938 152.036C729.303 152.036 744.647 134.455 744.647 115.487ZM609.352 228.203L633.055 195.015C650.082 205.328 669.606 210.62 686.619 210.62C700.578 210.62 710.335 207.009 717.866 199.467C723.454 193.879 727.361 186.088 730.427 175.207L731.257 171.844C717.866 183.839 703.918 190.267 685.507 190.267C658.169 190.267 631.67 171.844 631.67 138.09C631.67 91.227 665.982 49.6564 710.891 49.6564C733.766 49.6564 748.282 60.8097 756.653 74.2124L762.23 52.7231H815.236L783.151 172.685C775.892 199.74 768.646 214.255 756.369 226.817C741.309 241.583 720.375 248.851 688.857 248.851C659.838 248.851 628.877 240.469 609.352 228.203Z" fill="#3F3FC4"/>
<path d="M843.52 52.7238H896.528L891.78 70.0331C902.104 59.1518 917.165 49.3852 935.02 49.3852C962.357 49.3852 978.826 66.6718 978.826 94.5664C978.826 102.653 976.873 112.148 974.362 121.644L952.601 203.647H899.594L920.798 124.71C921.912 120.804 922.469 115.782 922.469 112.421C922.469 102.381 916.608 96.5197 905.726 96.5197C890.938 96.5197 882.296 106.56 877.548 123.869L856.07 203.647H803.062L843.52 52.7238Z" fill="#3F3FC4"/>
<path d="M0 254.211H6.33732L8.52931 287.681L28.8399 254.046H34.0386L36.3932 287.681L56.6212 254.211H63.1198L36.9626 296.531H31.4386L29.0013 263.393L8.77464 296.531H3.33066L0 254.211Z" fill="#3F3FC4"/>
<path d="M78.2714 238.124H85.4181L83.5501 245.029H76.4034L78.2714 238.124ZM74.3728 254.21H80.6261L69.3354 296.206H63.0781L74.3728 254.21Z" fill="#3F3FC4"/>
<path d="M88.7617 288.654C88.7617 287.193 89.003 285.565 89.331 284.269L95.9084 259.736H90.1404L91.603 254.212H97.4537L100.867 241.539H107.038L103.628 254.212H116.867L115.406 259.736H102.166L95.667 283.945C95.5017 284.917 95.3404 286.134 95.3404 287.028C95.3404 289.957 97.5324 291.333 101.108 291.333C102.976 291.333 104.928 290.93 107.2 290.037L105.659 295.725C103.466 296.618 101.435 296.942 98.9977 296.942C92.9857 296.942 88.7617 294.098 88.7617 288.654Z" fill="#3F3FC4"/>
<path d="M132.484 236.907H138.738L132.238 261.031C136.058 256.731 140.445 253.318 146.861 253.318C154.986 253.318 160.265 258.351 160.265 266.315C160.265 268.26 159.778 270.622 159.21 272.811L153.036 296.207H146.781L153.118 272.407C153.525 271.026 153.766 269.074 153.766 267.698C153.766 262.168 150.192 258.92 144.344 258.92C137.845 258.92 131.346 264.53 129.153 272.487L122.817 296.207H116.562L132.484 236.907Z" fill="#3F3FC4"/>
<path d="M190.341 236.908H245.018L270.97 312.529L337.358 236.908H398.179L345.729 432.195H291.336L321.184 320.048L251.162 396.486H250.038L221.302 320.616L191.454 432.195H137.891L190.341 236.908Z" fill="#3F3FC4"/>
<path d="M432.071 228.548H487.304L476.706 267.596H421.473L432.071 228.548ZM418.68 281.272H471.686L431.231 432.195H378.223L418.68 281.272Z" fill="#3F3FC4"/>
<path d="M480.941 399.552C480.941 393.419 482.055 387.014 483.736 379.745L498.796 323.954H480.941L492.379 281.271H510.233L520.557 243.064H573.565L563.241 281.271H598.393L586.956 323.954H551.804L538.969 371.385C538.128 375.019 537.572 378.359 537.572 380.585C537.572 386.718 541.207 390.08 549.577 390.08C555.427 390.08 561.844 388.671 569.659 385.901L557.936 429.968C548.453 433.308 537.572 435.262 526.691 435.262C496.013 435.262 480.941 421.882 480.941 399.552Z" fill="#3F3FC4"/>
<path d="M598.395 369.704C598.395 318.935 638.84 278.204 689.065 278.204C724.206 278.204 745.138 296.332 753.225 319.503L711.656 340.968C706.636 329.247 699.377 322.001 685.714 322.001C665.622 322.001 649.448 344.035 649.448 366.909C649.448 382.265 659.489 392.033 672.596 392.033C683.761 392.033 691.848 387.287 701.058 378.087L733.417 406.253C718.073 424.108 699.105 435.829 668.973 435.829C628.242 435.829 598.395 410.433 598.395 369.704Z" fill="#3F3FC4"/>
<path d="M796.271 228.548H849.279L830.583 298.581C840.907 287.7 855.968 277.932 873.823 277.932C901.161 277.932 917.631 295.218 917.631 323.113C917.631 331.201 915.676 340.696 913.167 350.19L891.404 432.195H838.398L859.603 353.257C860.716 349.35 861.272 344.33 861.272 340.968C861.272 330.928 855.412 325.068 844.531 325.068C829.743 325.068 821.099 335.108 816.352 352.417L794.874 432.195H741.867L796.271 228.548Z" fill="#3F3FC4"/>
<path d="M204.216 33.4829C189.428 18.6949 165.724 8.35897 127.777 8.35897H64.7296L15.0938 193.165L65.1043 143.155C65.3376 142.921 62.9656 137.108 62.779 136.643C61.059 131.015 59.895 125.201 59.3376 119.34C56.8256 90.6881 75.3829 68.7815 101.012 58.6895C120.687 50.9215 194.595 31.8042 194.595 31.8042L127.245 99.1547C120.64 95.9921 112.593 97.0614 107.151 102.503C100.222 109.433 100.222 120.596 107.106 127.48C114.036 134.411 125.199 134.411 132.129 127.48C137.571 122.039 138.64 113.992 135.477 107.387L202.828 40.0376C202.828 40.0376 183.711 113.945 175.943 133.62C165.851 159.248 143.943 177.807 115.292 175.295C109.432 174.737 103.616 173.575 97.9882 171.852C97.5242 171.665 91.7096 169.295 91.4776 169.528L57.359 203.646H90.9549C136.148 203.646 169.904 191.108 193.335 167.665C214.256 146.744 225.421 119.961 225.421 90.6588C225.421 66.9428 218.732 47.9762 204.216 33.4829Z" fill="#3F3FC4"/>
</svg>
