<svg width="96" height="96" viewBox="0 0 96 96" fill="none" xmlns="http://www.w3.org/2000/svg">
<path d="M86.3213 14.4498C79.5716 7.71033 68.7524 3 51.4322 3H22.6553L0 87.223L22.8263 64.4314C22.9326 64.3253 21.8497 61.6758 21.7648 61.4635C20.9794 58.8987 20.4488 56.2491 20.194 53.5782C19.0477 40.5205 27.5179 30.5368 39.2158 25.9371C48.1961 22.3973 81.9297 13.685 81.9297 13.685L51.1892 44.3787C48.1746 42.9378 44.5018 43.425 42.0178 45.9051C38.8549 49.0632 38.8549 54.1508 41.9971 57.2876C45.1601 60.4464 50.2554 60.4464 53.4184 57.2876C55.9022 54.8082 56.3902 51.1408 54.9471 48.1309L85.6876 17.4372C85.6876 17.4372 76.9621 51.1195 73.4168 60.086C68.81 71.7655 58.8106 80.2234 45.7336 79.0788C43.0586 78.8246 40.4043 78.2946 37.8356 77.5098C37.6237 77.4251 34.9695 76.3445 34.8638 76.4507L19.2907 92H34.6253C55.253 92 70.6601 86.2855 81.3549 75.6017C90.9041 66.0671 96 53.8616 96 40.5069C96 29.6989 92.9466 21.0547 86.3213 14.4498Z" fill="#3F3FC4"/>
</svg>
